#!OML:ASF H:\Dans Jumps\Project 1\Capture day 1\Session 1\subject.ASF
:FULLY-SPECIFIED
:DEGREES
118
root 0.393013 17.5533 -13.7097 4.51357 -3.71672 -1.25206
lowerback -5.4523 -1.04178 -0.432986
upperback 0.345736 -1.40207 1.19021
thorax 3.45429 -0.716195 1.35268
lowerneck -14.3939 -3.72939 -4.00564
upperneck 18.1561 -4.67411 2.18385
head 8.1501 -2.27974 0.859943
rclavicle -5.34234e-016 1.19271e-014
rhumerus -25.2467 -28.8503 -65.324
rradius 23.8181
rwrist 40.8594
rhand -24.6622 -30.5861
rfingers 7.12502
rthumb 1.83781 -60.5579
lclavicle -5.34234e-016 1.19271e-014
lhumerus -21.0922 19.7909 71.6327
lradius 16.0138
lwrist -9.66763
lhand -29.1743 -8.46681
lfingers 7.12502
lthumb -2.52007 21.498
rfemur -8.56436 -1.55094 18.4984
rtibia 18.1106
rfoot -13.4977 -0.882087
rtoes 10.9798
lfemur -5.85172 7.00113 -17.7303
ltibia 14.9276
lfoot -10.9473 6.37874
ltoes 0.0667797
119
root 0.390544 17.553 -13.7095 4.51014 -3.73965 -1.25521
lowerback -5.44059 -1.03416 -0.423433
upperback 0.359335 -1.39257 1.1882
thorax 3.46121 -0.711361 1.34614
lowerneck -14.3784 -3.76046 -4.02189
upperneck 18.1278 -4.71489 2.19217
head 8.13986 -2.29948 0.861048
rclavicle 9.15652e-015 -1.08338e-014
rhumerus -25.3886 -29.0357 -65.483
rradius 23.7398
rwrist 40.8088
rhand -24.8448 -30.7783
rfingers 7.12502
rthumb 1.6615 -60.7516
lclavicle 9.15652e-015 -1.08338e-014
lhumerus -21.2947 19.8729 71.7896
lradius 15.9534
lwrist -9.45108
lhand -29.2553 -8.4864
lfingers 7.12502
lthumb -2.59832 21.4775
rfemur -8.57288 -1.55438 18.5093
rtibia 18.1293
rfoot -13.4981 -0.851542
rtoes 10.9945
lfemur -5.84627 6.99027 -17.7198
ltibia 14.9321
lfoot -10.9361 6.41868
ltoes 0.0417891
120
root 0.38805 17.5525 -13.7091 4.50603 -3.75967 -1.2612
lowerback -5.42499 -1.02792 -0.412364
upperback 0.369241 -1.38505 1.18874
thorax 3.46221 -0.707474 1.34129
lowerneck -14.3656 -3.78932 -4.02819
upperneck 18.1067 -4.75274 2.18959
head 8.13187 -2.31822 0.857169
rclavicle -1.90585e-014 2.20651e-014
rhumerus -25.5535 -29.1823 -65.6513
rradius 23.6887
rwrist 40.7151
rhand -25.0291 -30.9642
rfingers 7.12502
rthumb 1.48345 -60.9388
lclavicle -1.90585e-014 2.20651e-014
lhumerus -21.5205 19.9588 71.949
lradius 15.8985
lwrist -9.32926
lhand -29.3048 -8.46988
lfingers 7.12502
lthumb -2.64607 21.4934
rfemur -8.57855 -1.55772 18.5237
rtibia 18.1463
rfoot -13.4996 -0.824097
rtoes 11.0126
lfemur -5.84013 6.9833 -17.7062
ltibia 14.9377
lfoot -10.9264 6.45625
ltoes -0.00576772
121
root 0.385551 17.5521 -13.7086 4.50105 -3.77837 -1.26728
lowerback -5.40462 -1.02312 -0.40269
upperback 0.375095 -1.37939 1.19109
thorax 3.45648 -0.704511 1.33906
lowerneck -14.3455 -3.81635 -4.03117
upperneck 18.0868 -4.78866 2.1845
head 8.12278 -2.33615 0.852265
rclavicle -7.20594e-016 3.08116e-015
rhumerus -25.7399 -29.3224 -65.819
rradius 23.6545
rwrist 40.6115
rhand -25.2082 -31.1244
rfingers 7.12502
rthumb 1.31047 -61.1002
lclavicle -7.20594e-016 3.08116e-015
lhumerus -21.7678 20.0424 72.112
lradius 15.8436
lwrist -9.31078
lhand -29.3393 -8.41742
lfingers 7.12502
lthumb -2.67942 21.5455
rfemur -8.58168 -1.56072 18.5384
rtibia 18.1618
rfoot -13.5036 -0.799982
rtoes 11.0304
lfemur -5.83239 6.97559 -17.6922
ltibia 14.9441
lfoot -10.9206 6.4925
ltoes -0.0457795
122
root 0.383178 17.5516 -13.7081 4.49426 -3.7933 -1.27398
lowerback -5.38065 -1.0199 -0.39214
upperback 0.380597 -1.37588 1.19441
thorax 3.44841 -0.702611 1.33721
lowerneck -14.3299 -3.84397 -4.02947
upperneck 18.0721 -4.82599 2.17734
head 8.1161 -2.35459 0.845644
rclavicle 1.05045e-014 -1.2424e-014
rhumerus -25.9381 -29.4665 -65.9885
rradius 23.6318
rwrist 40.5094
rhand -25.3756 -31.2514
rfingers 7.12502
rthumb 1.14881 -61.228
lclavicle 1.05045e-014 -1.2424e-014
lhumerus -22.0269 20.1088 72.2861
lradius 15.795
lwrist -9.36964
lhand -29.3564 -8.31347
lfingers 7.12502
lthumb -2.69594 21.6492
rfemur -8.58157 -1.57229 18.5533
rtibia 18.1766
rfoot -13.5141 -0.77273
rtoes 11.0527
lfemur -5.82246 6.96913 -17.6773
ltibia 14.9509
lfoot -10.9173 6.52343
ltoes -0.08721
123
root 0.380786 17.5511 -13.7075 4.48688 -3.80432 -1.28076
lowerback -5.35547 -1.01927 -0.384436
upperback 0.385621 -1.37573 1.19989
thorax 3.43939 -0.702446 1.33893
lowerneck -14.3131 -3.86759 -4.03718
upperneck 18.0589 -4.85986 2.19012
head 8.11035 -2.37007 0.8476
rclavicle -1.12127e-014 1.28216e-014
rhumerus -26.1453 -29.5349 -66.1835
rradius 23.6409
rwrist 40.3205
rhand -25.5257 -31.3799
rfingers 7.12502
rthumb 1.00381 -61.3573
lclavicle -1.12127e-014 1.28216e-014
lhumerus -22.2895 20.1665 72.4684
lradius 15.7306
lwrist -9.50073
lhand -29.3744 -8.18037
lfingers 7.12502
lthumb -2.71334 21.7821
rfemur -8.58013 -1.58463 18.569
rtibia 18.1914
rfoot -13.5288 -0.750589
rtoes 11.0705
lfemur -5.81145 6.95927 -17.6616
ltibia 14.9571
lfoot -10.9156 6.5512
ltoes -0.132514
124
root 0.378402 17.5506 -13.707 4.48041 -3.80948 -1.28595
lowerback -5.3291 -1.0214 -0.380393
upperback 0.391031 -1.37904 1.20639
thorax 3.43031 -0.704086 1.3435
lowerneck -14.308 -3.88615 -4.03912
upperneck 18.0554 -4.88771 2.20236
head 8.10957 -2.38223 0.848867
rclavicle 1.71638e-014 -1.77912e-014
rhumerus -26.3538 -29.5891 -66.3892
rradius 23.6619
rwrist 40.1161
rhand -25.6479 -31.4977
rfingers 7.12502
rthumb 0.88582 -61.4756
lclavicle 1.71638e-014 -1.77912e-014
lhumerus -22.5542 20.2061 72.6636
lradius 15.6656
lwrist -9.66132
lhand -29.3827 -7.99467
lfingers 7.12502
lthumb -2.72131 21.9677
rfemur -8.57924 -1.59949 18.5835
rtibia 18.2064
rfoot -13.5444 -0.733427
rtoes 11.0839
lfemur -5.80276 6.95024 -17.6472
ltibia 14.9627
lfoot -10.9148 6.57122
ltoes -0.175856
